<svg xmlns="http://www.w3.org/2000/svg" xmlns:xlink="http://www.w3.org/1999/xlink" xml:space="preserve" version="1.1" style="shape-rendering:geometricPrecision;text-rendering:geometricPrecision;image-rendering:optimizeQuality;" viewBox="0 0 333.33 416.66249999999997" x="0px" y="0px" fill-rule="evenodd" clip-rule="evenodd"><defs><style type="text/css">
   
    .fil0 {fill:black;fill-rule:nonzero}
   
  </style></defs><g><path class="fil0" d="M45.46 215.06c-2.17,3.61 -6.85,4.8 -10.47,2.63 -3.61,-2.16 -4.8,-6.85 -2.63,-10.46l77.25 -128.82c2.19,-3.66 5.14,-6.54 8.63,-8.51 3.53,-2 7.52,-3.06 11.75,-3.06 4.23,0 8.22,1.06 11.75,3.06 3.49,1.98 6.44,4.85 8.63,8.51l41.91 69.89c0.8,1.34 1.85,2.38 3.07,3.07 1.18,0.67 2.61,1.02 4.21,1.02 1.6,0 3.03,-0.35 4.21,-1.02 1.22,-0.69 2.27,-1.73 3.07,-3.07l9 -15.02c2.19,-3.65 5.14,-6.54 8.63,-8.51 3.53,-2 7.52,-3.06 11.75,-3.06 4.23,0 8.22,1.06 11.74,3.06 3.49,1.98 6.44,4.86 8.64,8.51l44.34 73.95c2.17,3.61 0.98,8.3 -2.63,10.46 -3.62,2.17 -8.3,0.98 -10.47,-2.63l-44.34 -73.94c-0.8,-1.34 -1.85,-2.38 -3.07,-3.07 -1.18,-0.67 -2.61,-1.03 -4.21,-1.03 -1.6,0 -3.03,0.36 -4.21,1.03 -1.22,0.69 -2.27,1.73 -3.07,3.07l-9 15.01c-2.19,3.65 -5.15,6.54 -8.64,8.51 -3.53,2 -7.52,3.06 -11.74,3.06 -4.23,0 -8.22,-1.07 -11.75,-3.06 -3.49,-1.98 -6.44,-4.86 -8.63,-8.51l-41.91 -69.89c-0.8,-1.34 -1.85,-2.38 -3.07,-3.07 -1.18,-0.67 -2.61,-1.02 -4.21,-1.02 -1.6,0 -3.03,0.35 -4.21,1.02 -1.22,0.69 -2.27,1.73 -3.07,3.07l-77.25 128.82zm-34.48 51.43c-4.23,0 -7.66,-3.43 -7.66,-7.65 0,-4.23 3.43,-7.66 7.66,-7.66l311.35 0c4.23,0 7.66,3.43 7.66,7.66 0,4.23 -3.43,7.65 -7.66,7.65l-311.35 0z"/></g><text x="0" y="348.33" fill="#000000" font-size="5px" font-weight="bold" font-family="'Helvetica Neue', Helvetica, Arial-Unicode, Arial, Sans-serif">Created by ARISO</text><text x="0" y="353.33" fill="#000000" font-size="5px" font-weight="bold" font-family="'Helvetica Neue', Helvetica, Arial-Unicode, Arial, Sans-serif">from the Noun Project</text></svg>