<svg xmlns="http://www.w3.org/2000/svg" data-name="Layer 1" viewBox="0 0 100 125" x="0px" y="0px"><path d="M63.18,75.22c-.72,3.55-1.77,7-2.67,10.55a1.34,1.34,0,0,1-.09.26c-.73,1.87-2.08,2.73-3.76,2.39s-2.58-1.73-2.32-3.75a40,40,0,0,1,1-4.25c.55-2.29,1.16-4.57,1.68-6.87a5.56,5.56,0,0,0-2.19-6c-1.22-.94-2.53-1.78-3.73-2.75a49,49,0,0,1-4.92-4.28c-4.43-4.72-4.56-10.35-.23-15.15,2.18-2.41,4.73-4.5,7.14-6.71,1-.9,2-1.75,3-2.63l-.29-.65c-2.72,0-5.45-.07-8.16,0a4.19,4.19,0,0,0-2.41.94c-1.55,1.39-2.93,3-4.37,4.47a15.91,15.91,0,0,1-1.47,1.59,2.75,2.75,0,0,1-4.41-2.9,5.16,5.16,0,0,1,1.11-2.14c2.33-2.41,4.69-4.81,7.2-7a4.8,4.8,0,0,1,3-.95q8.17.11,16.34.47c2.59.12,3.44,1.46,3,4a6.09,6.09,0,0,1-2.36,3.83c-2.86,2.38-5.7,4.79-8.47,7.28a47.38,47.38,0,0,0-4.4,4.45c-2,2.29-1.95,4.33.09,6.56a32.37,32.37,0,0,0,3.89,3.39c1.07.84,2.23,1.57,3.35,2.33C62.56,65,64.32,69.59,63.18,75.22Zm0-54.33c0-5.42,4.17-9.4,9.8-9.38A10.56,10.56,0,0,1,83.42,21.9c0,5.38-4.24,9.42-9.84,9.37A10.45,10.45,0,0,1,63.21,20.89Zm6.35-.07A4.27,4.27,0,0,0,73.7,25,3.11,3.11,0,0,0,77,21.82a4.28,4.28,0,0,0-4.23-4.09A3.28,3.28,0,0,0,69.56,20.82ZM39.94,56.23a2.85,2.85,0,0,0-3.52.37A9.54,9.54,0,0,0,35.15,58c-1,1.28-2,2.55-3,3.89A2.93,2.93,0,0,1,29.7,63.3c-3.26.1-6.52.24-9.78.37a17.45,17.45,0,0,0-2.71.15A2.63,2.63,0,0,0,15,66.3a2.57,2.57,0,0,0,1.58,2.88,7.8,7.8,0,0,0,2.63.53c1.81.08,3.63,0,5.44,0v-.12c2-.13,4-.25,6-.39a7.22,7.22,0,0,0,5.91-3.33c1-1.6,2.25-3.07,3.36-4.62a6.74,6.74,0,0,0,1-1.64A2.86,2.86,0,0,0,39.94,56.23ZM82.06,45.14a58.63,58.63,0,0,0-6.76-.51,4.43,4.43,0,0,1-3.37-1.4,30.27,30.27,0,0,0-3.36-3.15,2.79,2.79,0,0,0-3.82,4.06c1,1.18,2.15,2.21,3.17,3.36a7.78,7.78,0,0,0,6.16,2.92c1.26,0,2.53.15,3.79.23h0c1.18.1,2.35.25,3.52.28C83.5,51,84.79,50,85,48.39S84.11,45.43,82.06,45.14Z"/><text x="0" y="115" fill="#000000" font-size="5px" font-weight="bold" font-family="'Helvetica Neue', Helvetica, Arial-Unicode, Arial, Sans-serif">Created by kenneth bryan chung</text><text x="0" y="120" fill="#000000" font-size="5px" font-weight="bold" font-family="'Helvetica Neue', Helvetica, Arial-Unicode, Arial, Sans-serif">from the Noun Project</text></svg>