<svg xmlns="http://www.w3.org/2000/svg" xmlns:xlink="http://www.w3.org/1999/xlink" version="1.1" x="0px" y="0px" viewBox="0 0 100 125" enable-background="new 0 0 100 100" xml:space="preserve"><path d="M72.8,47.6c-0.4-0.8-1.3-1.3-2.2-1.3s-1.7,0.5-2.2,1.3l-3.4,6L52.7,32.4c-0.4-0.8-1.3-1.3-2.2-1.3s-1.7,0.5-2.2,1.3  L27.5,68.6l-4-7c-0.4-0.8-1.3-1.3-2.2-1.3s-1.7,0.5-2.2,1.3L5.3,85.6c-0.4,0.8-0.4,1.7,0,2.5s1.3,1.3,2.2,1.3h85  c0.9,0,1.7-0.5,2.2-1.3s0.4-1.7,0-2.5L72.8,47.6z M11.8,84.3l9.5-16.4l4,7c0.4,0.8,1.3,1.3,2.2,1.3s1.7-0.5,2.2-1.3l20.9-36.2  l12.3,21.2c0.4,0.8,1.3,1.3,2.2,1.3s1.7-0.5,2.2-1.3l3.4-6l17.6,30.4H11.8z"/><text x="0" y="115" fill="#000000" font-size="5px" font-weight="bold" font-family="'Helvetica Neue', Helvetica, Arial-Unicode, Arial, Sans-serif">Created by Arthur Shlain</text><text x="0" y="120" fill="#000000" font-size="5px" font-weight="bold" font-family="'Helvetica Neue', Helvetica, Arial-Unicode, Arial, Sans-serif">from the Noun Project</text></svg>