<svg xmlns="http://www.w3.org/2000/svg" data-name="Layer 1" viewBox="0 0 100 125" x="0px" y="0px"><path d="M26,54.13A16.23,16.23,0,0,0,9.59,70.23c-.21,9.4,7.49,17.52,16.7,17.62,9,.1,16.1-7,16.24-16.23S35.13,54.28,26,54.13Zm.26,27.3A10.74,10.74,0,0,1,16.06,70.2a9.54,9.54,0,0,1,9.73-9.6A10.69,10.69,0,0,1,36.18,71.66,9.73,9.73,0,0,1,26.27,81.43ZM88.12,60.86A14.46,14.46,0,0,0,70,54.57c-8.43,3.32-12.89,13.29-9.88,22.09,3.39,9.93,14.41,13.58,23,7.51A16.8,16.8,0,0,0,90.42,71C90.4,66.33,89.68,63.55,88.12,60.86ZM77,80.25C72,82,66.73,78.72,65.8,73.1c-.12-.71-.12-1.44-.17-2.07.19-4.26,1.77-7.66,5.42-9.88A8.3,8.3,0,0,1,81.85,63C86.33,68.43,83.68,77.92,77,80.25ZM60.94,44.63c-.87-1.05-1.68-2.15-2.56-3.18A32.6,32.6,0,0,0,55.26,38c-2.15-1.91-3.71-1.94-5.68.12S45.84,42.59,44,44.84a2,2,0,0,0,.33,3.08,50.17,50.17,0,0,0,4.92,3.85,10.39,10.39,0,0,1,5.13,9.07c.09,4.53,0,9.07-.05,13.6a3,3,0,0,1-3,3.25,3,3,0,0,1-3.17-3c-.18-2.25,0-4.53,0-6.79h-.08c0-2.27.07-4.54,0-6.8a4.85,4.85,0,0,0-2.4-4,44.22,44.22,0,0,1-5.36-4.17c-4.25-4-4.59-7.27-1.29-12a38.12,38.12,0,0,1,7.89-8.59c3.09-2.37,6.34-2.42,9.71-.74a17.14,17.14,0,0,1,5.66,5c1.12,1.43,2.19,2.9,3.34,4.3a9.43,9.43,0,0,0,6.55,3.5,18.58,18.58,0,0,1,3,.51A2.93,2.93,0,0,1,77.57,48a2.75,2.75,0,0,1-3.08,2.43C69.21,50.3,64.45,48.92,60.94,44.63Zm8.27-12A9.38,9.38,0,0,0,79,23.23,10.64,10.64,0,0,0,69,12.15a9.51,9.51,0,0,0-10,9.3A10.6,10.6,0,0,0,69.21,32.64Zm-.79-14a4.35,4.35,0,0,1,4.3,4.31,3.26,3.26,0,0,1-3.19,3.34,4.44,4.44,0,0,1-4.16-4.2A3.19,3.19,0,0,1,68.42,18.62Z"/><text x="0" y="115" fill="#000000" font-size="5px" font-weight="bold" font-family="'Helvetica Neue', Helvetica, Arial-Unicode, Arial, Sans-serif">Created by kenneth bryan chung</text><text x="0" y="120" fill="#000000" font-size="5px" font-weight="bold" font-family="'Helvetica Neue', Helvetica, Arial-Unicode, Arial, Sans-serif">from the Noun Project</text></svg>